<svg xmlns="http://www.w3.org/2000/svg" xmlns:xlink="http://www.w3.org/1999/xlink" viewBox="0,0,256,256" width="96px" height="96px" fill-rule="nonzero"><g fill="#ffffff" fill-rule="nonzero" stroke="none" stroke-width="1" stroke-linecap="butt" stroke-linejoin="miter" stroke-miterlimit="10" stroke-dasharray="" stroke-dashoffset="0" font-family="none" font-weight="none" font-size="none" text-anchor="none" style="mix-blend-mode: normal"><g transform="scale(5.33333,5.33333)"><path d="M23.9668,2.00977c-4.1839,0 -8.12852,0.76102 -11.35352,2.81445c-3.1486,2.00479 -5.48948,5.28798 -6.57031,9.85156c-0.3514,0.296 -0.75732,0.53719 -1.38281,1.58984c-0.8651,1.45589 -1.67187,3.71402 -1.67188,6.91211c0,2.2683 0.36501,4.45261 1.02148,6.50586c-0.60872,0.76754 -0.98633,1.72765 -0.98633,2.7832c0,2.485 2.015,4.5 4.5,4.5v-0.09961c3.06187,6.00194 9.29029,10.13086 16.47656,10.13086c7.16704,0 13.38248,-4.10621 16.45313,-10.08203v0.08398c2.485,0 4.5,-2.015 4.5,-4.5c0,-1.07769 -0.39346,-2.05324 -1.02539,-2.82812c0.65411,-2.04902 1.01758,-4.2284 1.01758,-6.49219c0,-11.66674 -9.40196,-21.16992 -20.97851,-21.16992zM23.9668,5.00977c9.93945,0 17.97852,8.10867 17.97852,18.16992c0,0.26859 -0.01598,0.53323 -0.02734,0.79883c-2.02549,-8.01833 -9.28001,-13.98047 -17.91797,-13.98047c-8.71736,0 -16.02823,6.07116 -17.97461,14.20117c-0.01856,-0.33885 -0.03711,-0.67773 -0.03711,-1.02148c0,-2.70291 0.6541,-4.378 1.25,-5.38086c0.5959,-1.00286 1.00977,-1.24219 1.00977,-1.24219l0.49805,-0.33594l0.12891,-0.58594c0.90497,-4.11184 2.78286,-6.64303 5.34961,-8.27734c2.56675,-1.63432 5.92709,-2.3457 9.74219,-2.3457zM24,12.99805c8.57837,0 15.5,6.92163 15.5,15.5c0,8.57837 -6.92163,15.5 -15.5,15.5c-8.57837,0 -15.5,-6.92163 -15.5,-15.5c0,-8.57837 6.92163,-15.5 15.5,-15.5zM16.99219,20.98633c-3.86291,0 -7.01953,3.14477 -7.01953,7.00195c0,3.85698 3.15578,7.00195 7.01953,7.00195c3.84151,0 6.96981,-3.1129 7.00586,-6.93945c0.02455,3.84302 3.15229,6.97656 6.99414,6.97656c3.85698,0 7.00195,-3.15578 7.00195,-7.01953c0,-3.86395 -3.14581,-7.02148 -7.00195,-7.02148c-3.83496,0 -6.9546,3.12542 -6.99023,6.95898c-0.0249,-3.83602 -3.16135,-6.95898 -7.00977,-6.95898zM16.99219,22.98633c2.78625,0 5.01953,2.22893 5.01953,5.00195c0,2.77302 -2.23328,5.00195 -5.01953,5.00195c-2.78625,0 -5.01953,-2.22893 -5.01953,-5.00195c0,-2.77282 2.23444,-5.00195 5.01953,-5.00195zM30.99219,22.98633c2.77186,0 5.00195,2.23543 5.00195,5.02148c0,2.78625 -2.22893,5.01953 -5.00195,5.01953c-2.77302,0 -5.00195,-2.23328 -5.00195,-5.01953c0,-2.78625 2.22893,-5.02148 5.00195,-5.02148zM16,28c-0.552,0 -1,0.448 -1,1c0,0.552 0.448,1 1,1c0.552,0 1,-0.448 1,-1c0,-0.552 -0.448,-1 -1,-1zM32,28c-0.552,0 -1,0.448 -1,1c0,0.552 0.448,1 1,1c0.552,0 1,-0.448 1,-1c0,-0.552 -0.448,-1 -1,-1zM22.99609,33.39453c-0.42486,-0.00679 -0.80763,0.25564 -0.95446,0.65438c-0.14683,0.39874 -0.02568,0.84673 0.30212,1.11711l0.52344,0.44336l0.04687,0.03125c0.68767,0.4578 1.59358,0.45587 2.2793,-0.00586l0.04297,-0.03125l0.51953,-0.43555c0.27716,-0.2291 0.40999,-0.58936 0.3479,-0.94355c-0.0621,-0.35419 -0.30957,-0.64778 -0.64814,-0.76893c-0.33857,-0.12115 -0.71612,-0.05121 -0.98882,0.18318l-0.39844,0.33594c-0.01177,0.0058 -0.02345,0.00705 -0.03516,0.00195l-0.39844,-0.33789c-0.1776,-0.15389 -0.40371,-0.24032 -0.63867,-0.24414zM24,38c-1.987,0 -3.62355,1.29278 -3.93555,2.42578c-0.039,0.118 -0.06445,0.244 -0.06445,0.375c0,0.663 0.53622,1.19922 1.19922,1.19922c0.8,0 1.20078,-1 2.80078,-1c1.6,0 2.00078,1 2.80078,1c0.663,0 1.19922,-0.53622 1.19922,-1.19922c0,-0.131 -0.02545,-0.257 -0.06445,-0.375c-0.312,-1.133 -1.94855,-2.42578 -3.93555,-2.42578z"></path></g></g></svg>